<?xml version="1.0" standalone="no"?>
<!DOCTYPE svg PUBLIC "-//W3C//DTD SVG 20010904//EN"
 "http://www.w3.org/TR/2001/REC-SVG-20010904/DTD/svg10.dtd">
<svg version="1.0" xmlns="http://www.w3.org/2000/svg"
 width="378.000000pt" height="253.000000pt" viewBox="0 0 378.000000 253.000000"
 preserveAspectRatio="xMidYMid meet">

<g transform="translate(0.000000,253.000000) scale(0.100000,-0.100000)"
fill="#000000" stroke="none">
<path d="M2580 2488 c-64 -33 -83 -65 -89 -150 l-6 -73 -35 2 c-231 16 -256
15 -340 -6 -100 -25 -176 -69 -236 -134 -68 -75 -102 -154 -138 -319 -8 -37
-21 -35 -36 5 -7 17 -48 104 -90 192 -113 234 -130 245 -387 245 -165 0 -210
-15 -244 -83 -32 -62 -22 -105 65 -276 42 -82 76 -155 76 -162 0 -7 -112 102
-250 243 -182 186 -263 263 -297 279 -44 22 -63 24 -238 27 -183 3 -191 2
-229 -20 -47 -28 -76 -79 -76 -133 0 -45 13 -69 144 -280 262 -422 410 -816
437 -1170 15 -202 17 -217 40 -254 28 -46 83 -67 237 -89 178 -26 228 -14 277
69 18 31 20 51 19 201 -1 141 1 166 13 157 20 -17 116 -201 179 -341 57 -128
73 -152 115 -174 36 -18 240 -55 312 -55 101 -1 148 44 168 162 6 35 14 67 18
71 4 4 29 -26 56 -68 28 -42 84 -109 126 -149 268 -256 695 -241 951 33 97
104 163 232 206 400 24 98 27 123 26 297 0 158 -4 208 -23 295 -29 134 -73
267 -121 367 -24 49 -35 82 -29 88 5 5 91 9 207 7 108 -1 218 3 243 9 56 13
103 57 118 114 14 52 14 517 0 568 -14 51 -63 104 -107 117 -52 14 -178 12
-237 -4 -42 -11 -58 -11 -95 0 -34 10 -127 14 -365 14 -313 0 -322 -1 -365
-22z m727 -25 c50 -16 56 -16 101 0 65 24 184 22 239 -2 74 -34 78 -48 81
-348 3 -245 2 -265 -17 -308 -16 -36 -29 -50 -63 -64 -38 -17 -68 -19 -266
-18 -279 2 -272 5 -212 -114 53 -105 112 -284 136 -414 15 -76 19 -143 18
-280 -1 -161 -4 -190 -28 -280 -75 -284 -241 -478 -470 -551 -166 -52 -325
-40 -486 38 -69 33 -100 56 -165 123 -44 45 -95 108 -114 141 -64 112 -82 137
-92 127 -5 -5 -14 -49 -19 -97 -22 -193 -66 -220 -295 -181 -173 30 -179 35
-267 230 -102 224 -223 424 -244 403 -3 -4 -1 -70 6 -147 31 -343 -8 -397
-257 -361 -124 18 -178 36 -207 70 -29 35 -31 44 -45 240 -17 226 -57 390
-156 635 -84 210 -193 415 -348 659 -80 125 -91 170 -58 223 37 59 63 65 260
61 159 -3 180 -5 223 -26 50 -25 293 -266 499 -497 64 -72 123 -136 133 -144
49 -41 21 38 -95 268 -55 108 -102 212 -105 231 -7 47 22 100 66 122 28 14 61
18 168 18 158 0 212 -11 254 -54 30 -29 172 -310 213 -418 31 -82 64 -87 65
-10 0 65 31 189 66 259 81 167 234 253 449 253 49 0 119 -7 154 -15 36 -9 71
-13 78 -11 8 4 12 27 12 74 -1 93 27 145 91 171 15 6 155 10 334 10 264 1 317
-1 363 -16z"/>
<path d="M2632 2450 c-72 -17 -98 -72 -87 -187 l7 -76 -39 6 c-21 3 -69 13
-108 21 -187 42 -376 -5 -484 -119 -87 -92 -128 -207 -138 -393 -9 -162 -26
-162 -94 1 -66 158 -176 387 -205 424 -45 59 -71 66 -246 67 l-157 1 -30 -29
c-53 -50 -46 -77 78 -325 117 -234 160 -346 143 -363 -13 -13 -44 16 -191 187
-146 170 -425 460 -487 507 -49 37 -59 40 -146 48 -236 23 -327 9 -354 -56
-19 -45 -4 -86 73 -206 180 -278 325 -573 407 -826 59 -182 83 -310 95 -504
12 -202 21 -211 228 -244 138 -22 176 -15 211 36 24 35 24 37 18 210 -4 96 -9
208 -12 247 -7 82 1 90 41 47 41 -44 143 -220 216 -374 110 -229 112 -233 146
-253 34 -19 220 -57 282 -57 49 0 97 31 110 72 6 18 15 88 20 156 6 67 13 127
16 133 12 18 34 -11 87 -114 61 -119 147 -231 220 -286 152 -114 358 -153 543
-102 112 31 177 71 275 170 71 71 94 103 132 181 85 173 120 382 99 595 -21
218 -68 386 -152 552 -27 54 -48 107 -47 118 4 29 49 34 301 33 318 0 302 -18
302 352 0 290 -1 298 -60 336 -42 28 -149 30 -223 5 l-64 -22 -59 21 c-54 18
-81 20 -347 19 -158 -1 -302 -5 -320 -9z m677 -30 l50 -20 48 21 c39 17 64 20
135 17 80 -3 90 -5 115 -31 l28 -27 0 -280 0 -280 -28 -27 -27 -28 -273 -6
c-149 -3 -273 -6 -274 -7 -13 -9 6 -69 51 -159 105 -210 145 -373 153 -618 4
-148 2 -183 -16 -272 -42 -203 -111 -335 -235 -451 -151 -140 -359 -194 -560
-142 -200 51 -338 182 -455 433 -49 105 -73 138 -86 116 -4 -6 -11 -68 -16
-138 -18 -274 -30 -287 -240 -251 -68 12 -137 29 -153 38 -32 19 -47 45 -136
236 -67 143 -196 366 -240 415 -16 17 -37 31 -46 31 -15 0 -16 -9 -10 -82 3
-46 10 -117 16 -158 14 -115 12 -265 -4 -305 -8 -19 -28 -41 -47 -50 -30 -16
-39 -16 -143 0 -142 21 -170 30 -199 65 -21 25 -25 42 -31 142 -28 452 -171
832 -530 1402 -61 98 -70 138 -36 174 33 35 82 42 245 33 171 -9 183 -13 270
-93 89 -81 347 -357 484 -518 127 -150 157 -179 179 -180 39 0 -14 142 -164
443 -57 114 -104 219 -104 233 0 34 50 84 87 86 88 4 272 -6 299 -17 17 -7 43
-28 57 -47 31 -40 134 -256 201 -418 52 -127 85 -192 102 -197 16 -5 24 54 24
174 0 241 76 401 228 480 121 64 248 72 442 28 69 -15 134 -34 145 -41 26 -19
55 -18 55 2 0 9 -17 22 -39 31 -89 35 -107 195 -28 243 30 19 52 20 344 20
287 0 316 -2 362 -20z"/>
<path d="M2634 2410 c-33 -13 -54 -50 -54 -93 0 -58 22 -91 75 -111 50 -20 70
-46 61 -82 -9 -36 -49 -41 -110 -14 -311 138 -604 90 -713 -117 -58 -108 -67
-164 -68 -400 0 -116 -3 -215 -7 -219 -22 -22 -61 47 -142 256 -32 80 -95 222
-141 317 -102 209 -96 204 -272 211 -165 6 -203 -6 -203 -67 0 -15 46 -119
103 -231 101 -201 179 -384 190 -446 4 -19 1 -39 -7 -50 -23 -31 -56 -5 -167
128 -237 285 -595 655 -654 678 -17 7 -102 14 -190 17 -149 5 -162 4 -184 -14
-41 -33 -31 -67 62 -215 219 -347 367 -672 442 -968 28 -111 55 -304 55 -396
0 -78 20 -131 54 -144 33 -12 205 -40 249 -40 46 0 73 32 81 95 8 60 -6 245
-31 397 -18 117 -14 140 24 146 47 7 191 -215 337 -518 46 -96 93 -184 105
-194 28 -25 258 -64 298 -50 46 16 55 50 63 248 8 173 18 236 39 236 19 0 50
-53 91 -157 62 -156 111 -236 204 -329 119 -119 237 -168 406 -167 165 0 290
53 410 173 200 199 273 536 199 917 -28 148 -71 269 -140 400 -32 62 -60 127
-61 145 l-3 33 285 1 c197 1 292 5 307 13 38 20 45 75 41 325 -3 256 -6 267
-67 287 -48 16 -148 6 -198 -20 l-41 -22 -61 25 c-60 26 -61 26 -353 25 -161
0 -303 -4 -314 -9z m663 -47 c41 -30 74 -29 129 3 39 23 53 26 114 22 38 -2
75 -9 82 -16 19 -19 19 -525 0 -544 -17 -17 -516 -18 -533 -1 -8 8 -14 69 -18
179 -6 159 -7 167 -30 185 -30 24 -52 24 -79 -1 -29 -27 -35 -67 -30 -227 3
-135 4 -139 34 -183 17 -25 54 -86 82 -136 199 -350 246 -776 122 -1106 -31
-83 -108 -196 -174 -255 -212 -188 -538 -186 -739 6 -104 99 -169 211 -231
398 -37 112 -84 193 -111 193 -8 0 -23 -12 -32 -27 -16 -23 -19 -60 -23 -268
-6 -269 -7 -275 -69 -275 -66 1 -230 36 -249 53 -10 10 -38 61 -61 115 -96
226 -315 585 -377 618 -26 14 -37 16 -57 7 -37 -17 -41 -57 -18 -175 25 -130
45 -364 37 -423 -10 -60 -24 -69 -98 -61 -119 12 -190 28 -209 47 -15 15 -19
34 -19 84 0 397 -176 882 -512 1413 -72 114 -81 134 -64 157 11 16 29 17 172
13 120 -3 166 -8 189 -20 33 -18 335 -321 461 -463 44 -49 128 -150 187 -222
60 -73 118 -140 130 -148 28 -20 62 -19 82 2 40 39 -18 205 -192 555 -57 114
-103 219 -103 232 0 13 7 27 16 30 28 11 248 5 283 -7 28 -10 42 -26 73 -82
59 -109 165 -355 225 -520 81 -228 133 -328 161 -311 27 16 33 111 17 261 -19
185 -19 262 0 362 35 184 128 287 293 322 121 26 279 3 417 -59 39 -18 85 -32
103 -33 43 -1 74 29 75 76 1 50 -24 83 -82 102 -54 18 -61 28 -61 85 0 71 2
71 350 68 298 -3 306 -4 337 -25z m-273 -254 c10 -49 7 -287 -3 -294 -5 -3
-17 5 -25 17 -13 18 -16 50 -16 149 0 70 3 134 6 143 10 27 31 18 38 -15z"/>
<path d="M3529 2353 l-77 -4 -20 -87 c-11 -48 -30 -133 -43 -189 -13 -57 -26
-103 -29 -103 -3 0 -16 46 -29 103 -13 56 -32 141 -43 190 l-20 87 -79 0 -79
0 0 -255 0 -255 50 0 50 0 1 213 1 212 46 -212 47 -213 52 0 c41 0 53 4 57 18
3 9 24 100 46 202 23 101 43 186 45 189 3 2 5 -89 5 -202 l0 -207 50 0 50 0 0
260 c0 143 -1 259 -2 258 -2 -1 -37 -4 -79 -5z"/>
<path d="M2640 2308 l0 -43 77 0 78 0 3 -177 c1 -98 0 -178 -2 -178 -3 0 -35
23 -72 50 -269 204 -612 224 -750 43 -101 -132 -113 -334 -44 -738 71 -415
131 -630 218 -785 112 -200 283 -310 479 -310 151 0 264 48 375 160 132 134
195 298 205 536 15 340 -94 681 -290 910 -38 45 -46 60 -34 62 15 3 17 29 19
215 l3 212 78 3 77 3 0 39 0 40 -210 0 -210 0 0 -42z m-148 -589 c125 -26 240
-121 310 -255 47 -90 103 -252 123 -355 19 -101 19 -272 1 -360 -26 -122 -94
-229 -174 -277 -40 -23 -58 -27 -122 -26 -194 1 -290 134 -375 519 -98 439
-61 706 103 755 39 12 74 12 134 -1z"/>
<path d="M2365 1685 c-47 -17 -96 -69 -114 -122 -19 -57 -25 -240 -11 -350 36
-291 117 -552 201 -647 44 -51 119 -86 184 -86 194 1 317 252 276 563 -27 201
-125 437 -222 536 -90 92 -226 138 -314 106z m190 -51 c139 -65 264 -287 310
-548 55 -315 -55 -576 -241 -576 -159 0 -246 140 -326 525 -28 133 -32 169
-32 320 -1 153 1 175 20 216 21 45 60 81 99 92 36 10 118 -4 170 -29z"/>
<path d="M2353 1616 c-53 -45 -68 -102 -67 -251 2 -255 88 -614 179 -745 57
-83 174 -110 251 -58 49 32 98 114 120 198 25 100 15 315 -20 435 -36 120
-114 279 -163 335 -56 63 -130 101 -207 107 -56 5 -65 3 -93 -21z m194 -22
c70 -34 127 -101 179 -209 138 -291 152 -589 35 -758 -54 -80 -152 -101 -227
-51 -21 15 -44 34 -52 43 -104 131 -207 631 -178 864 8 61 38 114 76 135 34
18 103 8 167 -24z"/>
<path d="M2373 1585 c-37 -26 -48 -79 -47 -230 1 -195 53 -458 125 -630 61
-148 170 -196 262 -115 77 68 118 235 98 404 -31 264 -153 507 -284 566 -51
23 -125 26 -154 5z m143 -34 c80 -36 146 -130 208 -293 74 -197 83 -427 21
-554 -36 -73 -67 -99 -120 -99 -82 0 -123 51 -179 225 -86 265 -121 613 -71
709 14 27 21 31 58 31 23 0 60 -9 83 -19z"/>
<path d="M180 2126 c0 -3 33 -56 74 -118 251 -385 420 -773 486 -1113 20 -106
43 -371 34 -387 -3 -4 -2 -8 3 -8 4 0 62 -9 128 -20 66 -11 123 -20 128 -20
10 0 9 151 -3 271 -25 240 -95 493 -214 772 -9 20 -14 37 -11 37 19 0 306
-363 413 -521 121 -181 260 -435 322 -591 12 -32 25 -58 29 -58 3 0 60 -9 125
-20 66 -11 122 -18 124 -15 15 15 23 253 13 390 -28 390 -134 754 -351 1203
l-79 162 -48 0 c-26 0 -92 3 -145 7 l-98 6 103 -204 c189 -373 307 -720 351
-1029 l7 -45 -49 81 c-142 235 -312 462 -527 709 -115 132 -419 450 -459 479
-28 22 -45 24 -193 31 -90 3 -163 4 -163 1z"/>
</g>
</svg>
